<svg width="512" height="448" viewBox="0 0 512 448" xmlns="http://www.w3.org/2000/svg">
    <path
        d="m160,64c17.7,0 32,-14.3 32,-32s-14.3,-32 -32,-32l-64,0c-53,0 -96,43 -96,96l0,256c0,53 43,96 96,96l64,0c17.7,0 32,-14.3 32,-32s-14.3,-32 -32,-32l-64,0c-17.7,0 -32,-14.3 -32,-32l0,-256c0,-17.7 14.3,-32 32,-32l64,0zm344.5,177.4c4.8,-4.5 7.5,-10.8 7.5,-17.4s-2.7,-12.9 -7.5,-17.4l-144,-136c-7,-6.6 -17.2,-8.4 -26,-4.6s-14.5,12.5 -14.5,22l0,72l-128,0c-17.7,0 -32,14.3 -32,32l0,64c0,17.7 14.3,32 32,32l128,0l0,72c0,9.6 5.7,18.2 14.5,22s19,2 26,-4.6l144,-136z" />
</svg>