<svg version="1.1" xmlns="http://www.w3.org/2000/svg" viewBox="0 0 38.887844244919734 38.457888427369156"
    width="38.887844244919734" height="38.457888427369156">
    <g stroke-linecap="round"
        transform="translate(16.28806750828494 22.23649503517143) rotate(45.161171448428654 7.099930388458802 0.696071606711655)">
        <path
            d="M0.35 0 M0.35 0 C5.31 1.02, 9.38 0.63, 13.85 0 M0.35 0 C4.76 -0.72, 7.98 -0.49, 13.85 0 M13.85 0 C15.94 0.04, 12.23 1.7, 14.2 0.35 M13.85 0 C15.65 1.87, 12.52 -1.29, 14.2 0.35 M14.2 0.35 C14.26 0.58, 14.16 0.76, 14.2 1.04 M14.2 0.35 C14.17 0.62, 14.2 0.86, 14.2 1.04 M14.2 1.04 C15.03 0.29, 13.38 3.27, 13.85 1.39 M14.2 1.04 C13.92 3.24, 15.6 2.45, 13.85 1.39 M13.85 1.39 C11.91 2.35, 7.7 1.7, 0.35 1.39 M13.85 1.39 C9.16 1.45, 4.91 0.89, 0.35 1.39 M0.35 1.39 C-1.19 2.11, -1.74 2.75, 0 1.04 M0.35 1.39 C1.92 1.6, -0.25 -0.59, 0 1.04 M0 1.04 C-0.01 0.87, 0.05 0.6, 0 0.35 M0 1.04 C-0.01 0.8, 0.03 0.53, 0 0.35 M0 0.35 C1.56 0.82, 1.72 -0.15, 0.35 0 M0 0.35 C0.65 -1.17, -0.6 -0.23, 0.35 0"
            stroke="#000000" stroke-width="1" fill="none"></path>
    </g>
    <g stroke-linecap="round" transform="translate(10 10) rotate(0 6.6582853620416245 6.65828536204161)">
        <path
            d="M5.43 0.61 C6.8 0.18, 9.65 -0.55, 10.86 0 C12.07 0.55, 12.2 2.38, 12.69 3.9 C13.18 5.41, 14.43 7.53, 13.79 9.09 C13.16 10.66, 10.16 12.47, 8.87 13.29 C7.58 14.11, 7.39 14.51, 6.04 14 C4.68 13.49, 1.68 11.47, 0.73 10.21 C-0.22 8.95, 0.14 7.62, 0.35 6.44 C0.55 5.25, 0.82 4.26, 1.96 3.1 C3.11 1.93, 6.21 -0.26, 7.2 -0.56 C8.19 -0.86, 7.85 1.1, 7.9 1.29 M2.88 1.35 C3.9 0.62, 5.66 -0.55, 7.41 -0.36 C9.16 -0.18, 12.19 1.07, 13.38 2.46 C14.58 3.85, 14.78 6.71, 14.59 7.98 C14.39 9.26, 13.4 9.13, 12.22 10.12 C11.05 11.1, 8.86 13.37, 7.54 13.89 C6.22 14.41, 5.52 14.08, 4.31 13.24 C3.11 12.41, 0.83 10.6, 0.31 8.89 C-0.21 7.18, 0.7 4.34, 1.19 2.97 C1.69 1.59, 2.81 0.86, 3.26 0.64 C3.71 0.42, 3.96 1.71, 3.9 1.66"
            stroke="#000000" stroke-width="1" fill="none"></path>
    </g>
    <g stroke-linecap="round"
        transform="translate(11.996059951574273 12.206171414899444) rotate(0 4.776661272633305 4.776661272633362)">
        <path class="inside-loupe"
            d="M6.48 0.89 C7.29 1.06, 7.27 0.84, 7.68 1.7 C8.09 2.56, 8.83 5.15, 8.92 6.05 C9.01 6.95, 8.7 6.42, 8.23 7.12 C7.75 7.81, 6.94 10.06, 6.06 10.21 C5.17 10.36, 3.99 8.63, 2.91 8 C1.83 7.37, 0 7.24, -0.43 6.43 C-0.86 5.62, -0.31 4.13, 0.34 3.13 C1 2.14, 2.58 1.06, 3.52 0.45 C4.46 -0.15, 5.25 -0.59, 5.98 -0.49 C6.71 -0.4, 7.87 0.97, 7.92 1.02 M5.67 -0.73 C6.6 -0.37, 6.91 1.67, 7.52 2.71 C8.13 3.75, 8.97 4.6, 9.34 5.5 C9.71 6.39, 10.47 7.43, 9.76 8.09 C9.05 8.74, 6.12 9.02, 5.08 9.41 C4.04 9.8, 4.11 10.85, 3.51 10.44 C2.92 10.03, 2.03 7.96, 1.51 6.94 C0.99 5.93, 0.52 5.41, 0.41 4.35 C0.29 3.29, 0.07 1.27, 0.82 0.58 C1.58 -0.11, 4.12 0.47, 4.96 0.22 C5.8 -0.04, 6.01 -1.08, 5.86 -0.94"
            stroke="#000000" stroke-width="1" fill="none"></path>
    </g>
</svg>