<svg width="15" height="20" viewBox="0 0 15 20" xmlns="http://www.w3.org/2000/svg">
    <g>
        <g transform="rotate(45 9.81432 9.9784)">
            <path data-name="moon"
                d="m10.08436,19.51984l-0.0968,0a9.98045,9.85861 0 0 1 -7.10539,-3.01209a10.12566,10.00204 0 0 1 -0.25169,-13.38705a9.80621,9.68649 0 0 1 3.87215,-2.62004a0.96804,0.95622 0 0 1 1.02612,0.21037a0.96804,0.95622 0 0 1 0.23233,0.95622a8.13151,8.03223 0 0 0 1.87799,8.42428a8.19927,8.09916 0 0 0 8.54776,1.85506a0.96804,0.95622 0 0 1 1.22941,1.23352a9.83525,9.71517 0 0 1 -2.26521,3.47107a9.95141,9.82992 0 0 1 -7.06667,2.86865z" />
        </g>
    </g>
</svg>