<svg width="25" height="32" viewBox="0 0 25 32" xmlns="http://www.w3.org/2000/svg" version="1.1">
    <g id="svg_1" stroke-linecap="round">
        <path id="svg_2" fill="#868e96" stroke-width="0"
            d="m10.20824,6.9002l10.03,-1.29l2.3,3.73l-1.19,19.28l-2.41,3.42l-10.71,-1.86l-3.3,1.41l-1.94,-25.1l4.03,-0.67" />
        <path id="svg_3" fill="none" stroke="#000000"
            d="m8.87824,5.5402m0,0c2.58,0.15 4.94,-0.32 8.72,0m-8.72,0c3.15,0.19 6.39,-0.36 8.72,0m0,0c4.48,-1.41 5.19,1.55 4.36,4.36m-4.36,-4.36c3.76,0.67 2.78,2.21 4.36,4.36m0,0c-0.45,5.18 -1.25,8.47 0,18.03m0,-18.03c-0.03,3.44 0.1,8.67 0,18.03m0,0c-0.98,4.66 -1.57,4.44 -4.36,4.36m4.36,-4.36c-0.35,2.37 0.41,3.37 -4.36,4.36m0,0c-1.5,-0.16 -4.02,-0.3 -8.72,0m8.72,0c-3.45,-0.32 -6.7,0.32 -8.72,0m0,0c-2.55,-0.26 -3.59,-1.32 -4.36,-4.36m4.36,4.36c-1.06,0.8 -2.94,-3.13 -4.36,-4.36m0,0c0.47,-2.8 -1.17,-6.01 0,-18.03m0,18.03c-0.65,-4.74 0.77,-8.38 0,-18.03m0,0c-0.14,-3.44 0.69,-2.63 4.36,-4.36m-4.36,4.36c0.18,-4.46 0.88,-5.36 4.36,-4.36" />
    </g>
    <g id="svg_4" stroke-linecap="round">
        <path id="svg_5" fill="#868e96" stroke-width="0"
            d="m4.26,4.26152l18.27,0.12l2.61,1.74l-1.72,1.11l-20.48,1.83l-2.94,-2.19l4.67,-5.15" />
        <path id="svg_6" fill="none" stroke="#000000"
            d="m2.91,3.53152m0,0c3.63,0.38 7.62,0.73 19.82,0m-19.82,0c7.03,-0.66 13.21,-0.45 19.82,0m0,0c1.95,-1.74 -0.22,1.93 1.06,1.07m-1.06,-1.07c-0.92,0.95 1.17,1.21 1.06,1.07m0,0c-0.21,0.64 0.12,1.36 0,2.13m0,-2.13c-0.1,0.76 -0.04,1.63 0,2.13m0,0c-1.05,1.13 1.54,0.08 -1.06,1.07m1.06,-1.07c2.03,0.58 -0.26,0.72 -1.06,1.07m0,0c-6.33,-0.64 -9.08,1.6 -19.82,0m19.82,0c-4.52,0.8 -11.6,-0.21 -19.82,0m0,0c-1.86,0.45 0.75,0 -1.07,-1.07m1.07,1.07c-1.01,0.89 -0.92,1.5 -1.07,-1.07m0,0c-0.2,-0.57 -0.08,-1.36 0,-2.13m0,2.13c-0.07,-0.8 0.1,-1.61 0,-2.13m0,0c-1.5,0.84 -0.2,-1.21 1.07,-1.07m-1.07,1.07c-0.61,-1.59 2.35,-0.89 1.07,-1.07" />
    </g>
    <g id="svg_7" stroke-linecap="round">
        <path id="svg_8" fill="#868e96" stroke-width="0" d="m7.2088,1.64l13.36,1.54l-1.05,0.6l-13.6,-0.25l1.82,-3.53" />
        <path id="svg_9" fill="none" stroke="#000000"
            d="m6.4788,1.84m0,0c3.08,-1.11 8.32,-0.43 13.24,0m-13.24,0c4.32,0.28 8.2,0.53 13.24,0m0,0c-1.22,1.8 -0.68,1.38 0.41,0.41m-0.41,-0.41c-1.73,-1.47 2.22,-1.49 0.41,0.41m0,0c0.03,0.23 0.03,0.49 0,0.83m0,-0.83c0.04,0.2 0.03,0.42 0,0.83m0,0c-0.98,-0.36 -0.02,-0.63 -0.41,0.42m0.41,-0.42c0.48,2.46 -1.27,2.44 -0.41,0.42m0,0c-4.21,1.04 -8.36,-0.59 -13.24,0m13.24,0c-3.79,0.46 -7.5,0.7 -13.24,0m0,0c1.52,-1.61 -0.66,-1.28 -0.41,-0.42m0.41,0.42c0.24,2.09 0,-0.44 -0.41,-0.42m0,0c0.03,-0.23 -0.06,-0.63 0,-0.83m0,0.83c0.03,-0.33 0.04,-0.64 0,-0.83m0,0c-0.76,1.3 -1.46,-1.91 0.41,-0.41m-0.41,0.41c1.79,-0.91 -0.02,-1.02 0.41,-0.41" />
    </g>
    <g id="svg_10" stroke-linecap="round">
        <g id="svg_11">
            <path id="svg_12" fill="none" stroke="#000000"
                d="m9.22588,11.66279c0.27,2.48 0.64,12.91 0.69,15.71m-1.73,-16.94c0.16,2.6 0.91,15.62 1,18.3" />
        </g>
    </g>
    <g id="svg_13" stroke-linecap="round">
        <g id="svg_14">
            <path id="svg_15" fill="none" stroke="#000000"
                d="m12.65199,12.38346c0.04,2.48 0.74,12.92 1.11,15.28m0.9,-16.11c-0.19,2.62 -2,15.04 -2.03,17.66" />
        </g>
    </g>
    <g id="svg_16" stroke-linecap="round">
        <g id="svg_17">
            <path id="svg_18" fill="none" stroke="#000000"
                d="m18.49568,13.02169c0.05,2.8 0.75,14.09 0.68,16.78m-1.92,-18.01c-0.18,2.5 0.46,13.16 0.98,16.28" />
        </g>
    </g>
</svg>