<svg width="594" height="285" viewBox="0 0 594 285" xmlns="http://www.w3.org/2000/svg" version="1.1">
    <g stroke-linecap="round">
        <path fill="none" stroke="#000000"
            d="m1.22879,1.01c151.46,-0.04 302.07,-1.2 590.95,-0.23m-590.83,-0.08c159.77,2.9 320.03,2.63 591.14,0.59m0.96,-0.7c0.04,94.59 0.9,188.09 0.37,282.53m-1.72,-282.67c-2.18,61.56 -1.95,123.69 -0.29,284.32m0.72,-1.07c-227.57,1.08 -454.2,1.33 -590.8,-0.1m590.45,0.61c-142.88,1.81 -286.15,1.57 -590.41,0.02m0.19,-0.85c-2.57,-91.59 -2.72,-185.11 0.2,-283.38m-0.09,283.97c0.74,-64.9 -0.01,-129.33 -1.06,-283.72" />
    </g>
</svg>