<svg width="340" height="75" viewBox="0 0 338 75" xmlns="http://www.w3.org/2000/svg" version="1.1">
    <g stroke-linecap="round">
        <path fill="none" stroke="#000000"
            d="m1.29,1.17c111.7,0.51 220.85,0.2 336.56,-0.06m-337.76,1.1c89.5,-1.64 177.12,-1.46 338.91,-0.37m-1.22,0.79c-0.06,24.24 2.92,48.91 1.37,70.1m-0.1,-71.58c-0.26,22.2 -0.9,43.23 -0.64,72.04m0.08,0.65c-111.37,1.47 -223.26,1.42 -336.6,0.54m337.15,-1.26c-103.8,1.62 -208.14,2.5 -338.11,0.01m1.53,-1.78c-0.7,-23.58 -2.26,-51.38 -2.46,-71.35m1.4,73.72c-1.11,-21.8 -1.1,-42.61 -0.86,-72.96" />
    </g>
</svg>