<svg width="435" height="46" viewBox="0 0 435 46" xmlns="http://www.w3.org/2000/svg" version="1.1">
  <g stroke-linecap="round">
    <path fill="none" stroke="#000000"
      d="m0.84,1.67c109.24,1.08 217.58,2.03 432.75,-0.32m-433,-0.34c97.79,1.87 196.09,1 433.44,0.44m-0.24,-1.45c-1.4,10.87 -0.46,21.26 0.89,43.01m-0.48,-41.12c-0.85,11.84 0.35,22.88 -0.11,42.26m-0.59,0.39c-135.47,0.66 -269.25,1.87 -432.11,-0.15m432.15,-0.1c-169.12,-1.93 -338.84,-1.57 -432.46,-0.27m-1.08,1.29c2.19,-10.86 2.52,-22.89 2.75,-44.02m-1.03,43.79c-1.12,-13.86 -0.73,-27.9 -1.15,-44.66" />
  </g>
</svg>