<svg viewBox="0 0 1089 725" width="1088" height="725" xmlns="http://www.w3.org/2000/svg" version="1.1">
  <g>
    <path fill="none" stroke="#000000"
      d="m2.63289,0.71c350.83,4.22 702.82,4.41 1085.03,-0.41m-1085.44,0.11c321.42,3.05 642.72,3.39 1085,-0.41m-0.21,0.05c1.72,152.17 1.39,303.91 0.76,724.81m-0.77,-724.37c1.04,276.05 0.76,552.81 -0.27,724.21m0.35,-0.67c-405.43,-3.43 -812.17,-3 -1084.77,0.63m1084.79,-0.04c-394.51,0.19 -788.59,0.44 -1084.71,-0.32m-0.7,0.15c-2.46,-215.17 -2.06,-429.14 0.05,-723.85m0.24,723.57c-1.26,-181.65 -1.33,-363.77 -0.31,-723.82" />
  </g>
</svg>