<svg width="198" height="48" viewBox="0 0 198 48" xmlns="http://www.w3.org/2000/svg" version="1.1">
    <g stroke-linecap="round">
        <path fill="none" stroke="#000000"
            d="m2.72,1.22c75.03,3.15 154.34,2.75 194.17,1m-194.96,-1.86c43.92,0.67 87.04,0.37 195.21,1.45m0.55,-1.81c-2.83,17.26 -2.29,29.04 -3.09,46.05m0.99,-44.98c1.49,17.58 1.09,35.81 0.53,46.19m1.54,-0.14c-64.62,-0.61 -128.22,1.79 -196.55,0.15m195.95,0.28c-72.26,-1.19 -144.9,-1.1 -196.34,0.51m-0.72,-2.66c3.43,-16.13 -0.31,-31.61 2.85,-44.99m-0.76,46.86c-1.19,-10.24 -1.49,-20.31 0.19,-46.57" />
    </g>
</svg>