<svg version="1.1" xmlns="http://www.w3.org/2000/svg" viewBox="0 0 642 572" width="642" height="572">
    <g stroke-linecap="round">
        <path fill="none" stroke="#000000"
            d="m1.05514,1.45543c183.14,-2.44 364.46,-1.24 641.03,-0.49m-640.76,-0.22c163.38,1.96 326.96,2.1 640.08,0.15m-0.71,0.11c-2.14,125.14 -1.59,249.21 0.94,569.77m-0.64,-569.53c1.68,131.56 2.1,263.11 0.25,570.22m0.28,-0.37c-198.28,-1.99 -395.55,-1.52 -640.16,0.79m640.3,-0.37c-219.45,-0.88 -439.2,-1.16 -640.07,-0.75m-0.92,0.13c-0.98,-199.05 -1.07,-399.66 0.93,-569.54m0.06,569.48c-1.89,-216.89 -1.76,-433.91 -0.47,-569.76" />
    </g>
</svg>
