<svg width="136" height="45" viewBox="0 0 136 45" xmlns="http://www.w3.org/2000/svg" version="1.1">
    <g stroke-linecap="round">
        <path fill="none" stroke="#000000"
            d="m0,0.81c36.66,0.71 72.97,2.68 132.66,-0.51m-130.36,1.01c36.76,2.37 73.43,2.04 131.64,0.27m0.81,-1.58c-0.52,12.14 0.41,26.86 1.47,44.71m-2.49,-42.76c1.09,8.56 1.22,19.04 1.81,42.88m-0.34,0.58c-50.54,-0.14 -100.58,-0.45 -135.12,-1.6m134.65,0.85c-49.42,-0.52 -98.32,-0.61 -132.49,-0.59m-0.62,1.07c0.06,-10.61 -2.1,-22.1 -0.04,-42.7m0.12,40.88c-1.48,-14.46 -0.54,-30.94 -0.89,-40.82" />
    </g>
</svg>