<svg width="396" height="63" viewBox="0 0 396 63" xmlns="http://www.w3.org/2000/svg" version="1.1">
    <g stroke-linecap="round">
        <path fill="none" stroke="#000000"
            d="m2.2865,0.92859c91.42,-1.81 182.2,-0.8 391.87,1.53m-392.37,-0.83c143.52,0.41 286.21,0.24 393.28,-0.02m-0.51,-0.37c0.38,14.94 -1.4,28.11 1.62,61.36m-1.83,-61.92c1.42,20.08 0.01,38.34 1.34,59.33m-1.52,0.56c-112.46,0.32 -225.04,1.1 -392.31,-0.62m393.31,0.39c-93.95,-0.43 -186.67,0.4 -394.31,-0.18m-0.79,0.09c-0.52,-13.1 2.24,-27.02 0.33,-60.03m1.26,60.51c-1.14,-13.57 -0.36,-26.84 -0.34,-58.85" />
    </g>
</svg>